<?xml version="1.0" standalone="no"?>
<!DOCTYPE svg PUBLIC "-//W3C//DTD SVG 20010904//EN"
 "http://www.w3.org/TR/2001/REC-SVG-20010904/DTD/svg10.dtd">
<svg version="1.0" xmlns="http://www.w3.org/2000/svg"
 width="150.000000pt" height="150.000000pt" viewBox="0 0 150.000000 150.000000"
 preserveAspectRatio="xMidYMid meet">
<metadata>
Created by potrace 1.10, written by Peter Selinger 2001-2011
</metadata>
<g transform="translate(0.000000,150.000000) scale(0.100000,-0.100000)"
fill="#000000" stroke="none">
<path d="M732 1363 c-69 -34 -113 -139 -110 -258 3 -92 -14 -118 -89 -142 -72
-23 -87 -45 -80 -121 13 -143 28 -244 47 -323 20 -85 20 -86 0 -160 -33 -124
-25 -208 23 -239 30 -19 198 -26 237 -10 32 13 73 73 85 123 4 15 11 27 15 27
4 0 24 -15 44 -34 21 -18 60 -46 88 -61 41 -23 54 -25 74 -16 13 5 26 21 30
35 7 31 -24 103 -60 135 -34 32 -33 46 4 61 16 7 41 28 55 47 23 29 26 41 23
91 -2 31 -12 95 -21 142 -9 47 -20 125 -25 173 -7 69 -14 94 -30 110 -27 27
-36 18 -18 -18 8 -15 17 -62 21 -104 9 -113 15 -150 31 -212 29 -114 16 -158
-57 -205 -22 -13 -39 -32 -39 -42 0 -10 15 -36 33 -58 57 -67 74 -118 42 -130
-16 -6 -151 80 -169 108 -20 32 -36 19 -70 -56 -20 -44 -43 -79 -57 -86 -32
-18 -191 -8 -224 14 -22 15 -25 23 -25 77 0 34 9 92 21 130 l21 69 -26 108
c-14 60 -26 126 -26 148 0 21 -7 75 -15 118 -18 94 -9 119 50 130 19 4 50 20
68 35 57 50 76 56 105 34 37 -27 79 -99 93 -158 20 -86 24 -83 29 30 6 125 -1
120 104 90 32 -9 61 -14 64 -11 3 4 0 29 -6 57 -7 28 -12 81 -12 119 0 49 -4
71 -16 81 -9 7 -29 39 -45 71 -29 58 -76 95 -105 84 -7 -3 -16 -1 -19 4 -9 14
-25 12 -63 -7z m110 -39 c21 -13 4 -22 -32 -17 -35 5 -43 2 -76 -31 -52 -52
-72 -48 -35 8 28 41 59 57 101 50 19 -3 38 -8 42 -10z m-7 -36 c49 -13 49 -13
59 -103 4 -27 11 -54 17 -60 8 -7 9 2 5 33 -5 42 6 57 19 25 11 -26 16 -183 6
-183 -11 0 -71 21 -71 25 0 2 10 20 21 40 30 50 16 56 -15 7 -13 -22 -36 -49
-50 -60 -14 -11 -26 -25 -26 -32 0 -10 -3 -10 -15 0 -8 7 -13 16 -10 20 2 4
-9 16 -24 28 -16 11 -39 42 -52 67 -13 25 -30 57 -37 71 -14 25 -2 68 12 45
12 -19 23 -12 60 39 20 28 40 50 46 50 5 0 30 -5 55 -12z m-145 -225 c0 -24
-25 -9 -28 17 -3 21 -2 22 12 11 9 -7 16 -20 16 -28z"/>
<path d="M794 1079 c-6 -10 11 -28 28 -29 15 0 20 23 7 31 -19 12 -26 11 -35
-2z"/>
<path d="M630 586 c0 -13 6 -29 14 -36 8 -6 16 -21 18 -33 4 -27 58 -39 58
-13 0 8 -5 18 -10 21 -6 4 -19 24 -30 46 -23 44 -50 52 -50 15z"/>
<path d="M915 580 c-3 -5 -15 -10 -26 -10 -10 0 -19 -5 -19 -11 0 -6 7 -8 16
-5 15 6 56 -27 67 -55 5 -12 7 -12 16 1 6 8 11 25 11 37 0 37 -48 70 -65 43z"/>
</g>
</svg>
